{"title":"Beverly.Hills.Chihuahua.2.2011.DvDRip.x264.Feel-Free","uid":6111468,"size":1000915453,"categoryP":"video","categoryS":"movies","magnet":"?xt=urn:btih:b25f5e33b2990a6593a64f17843c42920dcd746b&amp;dn=Beverly.Hills.Chihuahua.2.2011.DvDRip.x264.Feel-Free&amp;tr=udp%3A%2F%2Ftracker.openbittorrent.com%3A80&amp;tr=udp%3A%2F%2Fopen.demonii.com%3A1337&amp;tr=udp%3A%2F%2Ftracker.coppersurfer.tk%3A6969&amp;tr=udp%3A%2F%2Fexodus.desync.com%3A6969","seeders":0,"leechers":1,"uploader":".BONE.","files":10,"time":1295369748,"description":"Genre:Comedie\nLanguage:English\n &lt;a href=&quot;\nhttp://www.imdb.com/title/tt1482393/&quot; rel=&quot;nofollow&quot; target=&quot;_NEW&quot;&gt;\nhttp://www.imdb.com/title/tt1482393/&lt;/a&gt;\n\nSource:DVD\n\n\nFormat : Matroska\nFile size : 952 MiB\nDuration : 1h 23mn\nOverall bit rate : 1 589 Kbps\n\n\nVideo\nFormat settings, CABAC : Yes\nFormat settings, ReFrames : 4 frames\nCodec ID : V_MPEG4/ISO/AVC\nDuration : 1h 23mn\nBit rate : 1 200 Kbps\nWidth : 720 pixels\nHeight : 384 pixels\nDisplay aspect ratio : 1.875\nFrame rate mode : Variable\nFrame rate : 23.976 fps\nColor space : YUV\nChroma subsampling : 4:2:0\nBit depth : 8 bits\nScan type : Progressive\nBits/(Pixel*Frame) : 0.181\nStream size : 703 MiB (74%)\nWriting library : x264\n\n\nAudio\nID : 2\nFormat : AC-3\nFormat/Info : Audio Coding 3\nMode extension : CM (complete main)\nCodec ID : A_AC3\nDuration : 1h 23mn\nBit rate mode : Constant\nBit rate : 384 Kbps\nChannel(s) : 6 channels\nChannel positions : Front: L C R, Side: L R, LFE\nSampling rate : 48.0 KHz\nBit depth : 16 bits\nVideo delay : -1mn 5s\nStream size : 230 MiB (24%)\nLanguage : English\n &lt;a href=&quot;\nhttp://shareimage.org/images/at7uurw0zysxn154pce8.png&quot; rel=&quot;nofollow&quot; target=&quot;_NEW&quot;&gt;\nhttp://shareimage.org/images/at7uurw0zysxn154pce8.png&lt;/a&gt;\n &lt;a href=&quot;\nhttp://shareimage.org/images/aj5k3mb3tcspjeo7b9jc.png&quot; rel=&quot;nofollow&quot; target=&quot;_NEW&quot;&gt;\nhttp://shareimage.org/images/aj5k3mb3tcspjeo7b9jc.png&lt;/a&gt;\n &lt;a href=&quot;\nhttp://shareimage.org/images/3dtkejaenndr3hamlx1z.png&quot; rel=&quot;nofollow&quot; target=&quot;_NEW&quot;&gt;\nhttp://shareimage.org/images/3dtkejaenndr3hamlx1z.png&lt;/a&gt;\n &lt;a href=&quot;\nhttp://shareimage.org/images/qqw3aork3wxnl221rak5.png&quot; rel=&quot;nofollow&quot; target=&quot;_NEW&quot;&gt;\nhttp://shareimage.org/images/qqw3aork3wxnl221rak5.png&lt;/a&gt;\n &lt;a href=&quot;\nhttp://shareimage.org/images/nm9vs8zy8mbw5qzgm7b.png&quot; rel=&quot;nofollow&quot; target=&quot;_NEW&quot;&gt;\nhttp://shareimage.org/images/nm9vs8zy8mbw5qzgm7b.png&lt;/a&gt;\n &lt;a href=&quot;\nhttp://shareimage.org/images/qmxpk7fdvslclr2q55c8.png&quot; rel=&quot;nofollow&quot; target=&quot;_NEW&quot;&gt;\nhttp://shareimage.org/images/qmxpk7fdvslclr2q55c8.png&lt;/a&gt;","torrent":{"xt":"urn:btih:b25f5e33b2990a6593a64f17843c42920dcd746b","amp;dn":"Beverly.Hills.Chihuahua.2.2011.DvDRip.x264.Feel-Free","amp;tr":["udp%3A%2F%2Ftracker.openbittorrent.com%3A80","udp%3A%2F%2Fopen.demonii.com%3A1337","udp%3A%2F%2Ftracker.coppersurfer.tk%3A6969","udp%3A%2F%2Fexodus.desync.com%3A6969"],"infoHash":"b25f5e33b2990a6593a64f17843c42920dcd746b","infoHashBuffer":{"type":"Buffer","data":[178,95,94,51,178,153,10,101,147,166,79,23,132,60,66,146,13,205,116,107]},"announce":[],"urlList":[]}}